<?xml version="1.0" standalone="no"?><!DOCTYPE svg PUBLIC "-//W3C//DTD SVG 1.1//EN" "http://www.w3.org/Graphics/SVG/1.1/DTD/svg11.dtd"><svg t="1649421704000" class="icon" viewBox="0 0 1024 1024" version="1.1" xmlns="http://www.w3.org/2000/svg" p-id="2934" xmlns:xlink="http://www.w3.org/1999/xlink" width="200" height="200"><defs><style type="text/css">@font-face { font-family: feedback-iconfont; src: url("//at.alicdn.com/t/font_1031158_u69w8yhxdu.woff2?t=1630033759944") format("woff2"), url("//at.alicdn.com/t/font_1031158_u69w8yhxdu.woff?t=1630033759944") format("woff"), url("//at.alicdn.com/t/font_1031158_u69w8yhxdu.ttf?t=1630033759944") format("truetype"); }
</style></defs><path d="M151.687507 443.36143C223.110019 304.249661 343.214183 234.683111 512 234.683111c168.785817 0 288.889981 69.545218 360.312493 208.678319a21.332889 21.332889 0 0 1 2.346618 9.74913V789.338222a85.331556 85.331556 0 0 1-85.331555 85.331556H234.672444a85.331556 85.331556 0 0 1-85.331555-85.331556V453.11056a21.332889 21.332889 0 0 1 2.346618-9.74913z" fill="#00AF92" p-id="2935"></path><path d="M298.671111 128.018666h341.326222a170.663111 170.663111 0 0 1 170.663112 170.663111v490.656445a85.331556 85.331556 0 0 1-85.331556 85.331556H298.671111a85.331556 85.331556 0 0 1-85.331556-85.331556V213.350222a85.331556 85.331556 0 0 1 85.331556-85.331556z" fill="#01C3A3" p-id="2936"></path><path d="M149.340889 618.675111l347.768755 129.554634a42.665778 42.665778 0 0 0 29.780712 0L874.659111 618.675111v170.663111a85.331556 85.331556 0 0 1-85.331555 85.331556H234.672444a85.331556 85.331556 0 0 1-85.331555-85.331556v-170.663111z" fill="#01E0D0" p-id="2937"></path><path d="M618.664444 256.016a21.332889 21.332889 0 0 1 21.332889 21.332889v255.994666a21.332889 21.332889 0 0 1-21.332889 21.332889H405.335556a21.332889 21.332889 0 0 1-21.332889-21.332889V277.348889a21.332889 21.332889 0 0 1 21.332889-21.332889h213.328888z m-42.665777 149.330222h-127.997334a21.332889 21.332889 0 1 0 0 42.665778h127.997334a21.332889 21.332889 0 0 0 0-42.665778z m-85.331556-85.331556h-42.665778a21.332889 21.332889 0 0 0 0 42.665778h42.665778a21.332889 21.332889 0 0 0 0-42.665778z" fill="#FFFFFF" fill-opacity=".95" p-id="2938"></path></svg>